<svg version="1.2" xmlns="http://www.w3.org/2000/svg" viewBox="0 0 280 280" width="280" height="280">
	<title>Logo_CentraleSupélec-svg</title>
	<style>
		.s0 { fill: #b00739 } 
		.s1 { fill: #8c7a99 } 
	</style>
	<g id="g10">
		<g id="g5820">
			<g id="g5798">
				<path id="path224" class="s0" d="m211.4 168.7c-5.4-11.4-19.5-15.9-31.5-10.1-12 5.8-20.7 21.3-15.4 32.7 5.4 11.4 22.8 14.3 34.8 8.5 12-5.8 17.4-19.7 12.1-31.1z"/>
				<path id="path230" class="s0" d="m263.8 143.5c-14.1-29.9-43.6-47.4-74.4-47.4-11.9 0-24 2.6-35.4 8.1-11.3 5.5-21 13.3-28.4 22.7l28.6 23.4c4.1-5.1 9.3-9.4 15.7-12.5 6.4-3.1 13-4.5 19.5-4.5 17 0 33.4 9.7 41.1 26.2 3.1 6.5 4.5 13.1 4.5 19.8 0 17.2-9.6 33.6-25.9 41.5-6.3 3-12.8 4.4-19.2 4.5v37.2c11.8-0.1 23.8-2.7 35-8.1 29.6-14.3 46.9-44.1 46.9-75.1 0-12-2.6-24.3-8-35.8z"/>
			</g>
			<g id="g5794">
				<path id="path236" class="s1" d="m116 85c-5.6-11.8-23.6-14.9-36.1-8.8-12.5 6-18.2 20.5-12.6 32.3 5.6 11.8 20.2 16.5 32.7 10.5 12.5-6.1 21.6-22.2 16-34z"/>
				<path id="path242" class="s1" d="m125.6 126.8c-4.1 5.2-9.4 9.5-15.7 12.5-6.4 3.1-13 4.5-19.6 4.5-17 0-33.3-9.6-41.1-26.2-3-6.4-4.4-13.1-4.4-19.7 0-17.2 9.5-33.7 25.9-41.6 6.3-3 12.7-4.4 19.2-4.4v-37.3c-11.8 0.1-23.8 2.7-35 8.2-29.6 14.2-47 44-47 75.1 0 12 2.7 24.2 8.1 35.7 14.1 29.9 43.6 47.4 74.3 47.4 11.9 0 24-2.6 35.4-8.1 11.4-5.5 21-13.3 28.5-22.6 0 0-28.6-23.5-28.6-23.5z"/>
			</g>
			<g id="g5802">
			</g>
		</g>
	</g>
</svg>