<svg version="1.2" xmlns="http://www.w3.org/2000/svg" viewBox="0 0 250 80" width="250" height="80">
	<title>理想-ai</title>
	<style>
		.s0 { fill: #050302 } 
	</style>
	<g id="图层 1">
		<path id="&lt;Path&gt;" class="s0" d="m55.8 62.1c-3.6 0-7.1-0.1-10.5-0.9-3.4-0.8-6.6-2.3-9.3-4.4-5.9-4.3-9.2-10-12.5-16.1l-11.6-21.1h31.2l8.1 14.7c1.1 2.2 2.3 4 4.3 5.6 2.5 2 6.5 2.4 10.4 2.4h6.7l10.8 19.8z"/>
		<path id="&lt;Path&gt;" class="s0" d="m121.2 62.1l-10.9-19.8h-33.6l10.9 19.8z"/>
		<path id="&lt;Path&gt;" class="s0" d="m108.5 39.1l-10.8-19.7h-33.5l10.8 19.7c0 0 33.5 0 33.5 0z"/>
		<path id="&lt;Compound Path&gt;" fill-rule="evenodd" class="s0" d="m235.4 18.5v26.6h-22.4v-26.6zm-4.3 18.7h-14.1v4.5h14.1zm0-7.7h-14.1v4.5h14.1zm0-7.5h-14.1v4.5h14.1z"/>
		<path id="&lt;Path&gt;" class="s0" d="m149.2 52.2l-5.6 1v-12.2h5.3v-3.9h-5.3v-12.3h5.5v-4.1h-15.2v4.1h5.4v12.3h-5.3v3.9h5.3v13.1l-2.9 0.6q-2.2 0.4-3.1 0.5l2 3.8c3.2-0.8 14.1-2.8 14.1-2.8 0 0-0.3-3.4-0.2-4z"/>
		<path id="&lt;Path&gt;" class="s0" d="m216 55.6l3.3-2.8c-2.5-2.7-4.3-4.5-5.7-5.8l-2.9 2.5q2.9 2.7 5.3 6.1z"/>
		<path id="&lt;Path&gt;" class="s0" d="m231.7 48.3l-3.8 1.6c1.2 2.2 4.7 8.8 5.1 9.5l4.1-1.7q-2.7-4.7-5.4-9.4z"/>
		<path id="svg 8" class="s0" d="m223.4 52q-0.1 2-0.5 4.1-0.6 2.9-4.3 2.7h-7.7q-4.1 0.2-3.9-2.9v-6.8h-4.5v7.7q0 6.1 6.8 6.1h10.2q5.7 0 7.1-4.5c0.4-1.2 0.7-2.7 1.1-4.8q-0.5-0.1-0.9-0.3-1.7-0.6-3.4-1.3z"/>
		<g id="svg 9">
			<path id="svg 10" class="s0" d="m190.8 59.2q2.1 0.6 3.9 1.5c1.8-3.3 3.3-6.8 4.4-10.5l-4-1.3q-2.2 6.6-4.3 10.3zm16-20.2l2.8-2.9q-2.8-2.4-5.7-4.7l-1.5 1.6v-4.9h6.4v-3.9h-6.4v-7h-4.1v7h-7.4v3.9h6.8q-3.1 6.6-7.8 11.5l2.1 3.8c2.5-2.8 4.6-6 6.3-9.5v12.5h4.1v-11.7q2.3 2 4.4 4.3z"/>
		</g>
		<path id="svg 11" fill-rule="evenodd" class="s0" d="m182.3 62h-30.5l-2.1-3.9h14.4v-5.8h-11.7v-3.7h11.7v-5.5h-11.1v-23.8h26.7v23.8h-11.3v5.5h9.9l2 3.7h-11.9v5.8h11.7zm-25.1-32.5h7.3v-6.5h-7.3zm11.1 9.9h7.4v-6.7h-7.4zm0-10h7.4v-6.5h-7.4zm-11.1 9.9h7.3v-6.7h-7.3z"/>
	</g>
</svg>